<svg width="161" height="41" viewBox="0 0 161 41" fill="none" xmlns="http://www.w3.org/2000/svg">
<path d="M35.4728 29.1175C34.5988 28.7382 33.8373 28.1401 33.2616 27.3809C32.7273 26.6716 32.4242 25.8151 32.3933 24.9276H35.5933C35.6481 25.5612 35.951 26.0903 36.5021 26.5148C37.0532 26.9393 37.7451 27.1527 38.5778 27.1548C39.4461 27.1548 40.1199 26.9873 40.5992 26.6524C41.0785 26.3175 41.3181 25.888 41.3181 25.3639C41.3181 24.8042 41.0511 24.3882 40.517 24.1159C39.983 23.8435 39.1375 23.5452 37.9805 23.2209C37.0505 22.9769 36.1358 22.6777 35.2413 22.3249C34.5332 22.0344 33.9049 21.5787 33.4088 20.9959C32.8939 20.3985 32.6365 19.6117 32.6365 18.6353C32.6328 17.851 32.8798 17.0859 33.3416 16.4519C33.8116 15.792 34.4854 15.2718 35.3629 14.8913C36.2404 14.5109 37.2488 14.321 38.388 14.3217C40.0868 14.3217 41.4568 14.7513 42.4978 15.6103C43.5389 16.4693 44.095 17.6405 44.1661 19.1239H41.0728C41.0569 18.815 40.9762 18.513 40.836 18.2374C40.6957 17.9617 40.4991 17.7186 40.2589 17.5239C39.7704 17.1271 39.1101 16.9283 38.2781 16.9276C37.4646 16.9276 36.8406 17.0812 36.4061 17.3884C36.2031 17.5202 36.0369 17.7015 35.9231 17.9151C35.8093 18.1287 35.7516 18.3677 35.7554 18.6097C35.7518 18.7984 35.7887 18.9856 35.8636 19.1587C35.9385 19.3319 36.0497 19.4869 36.1896 19.6135C36.4955 19.8961 36.8554 20.1138 37.2477 20.2535C37.6623 20.4071 38.277 20.6012 39.092 20.8359C40.0024 21.0674 40.8956 21.3621 41.765 21.718C42.4581 22.0146 43.0749 22.4647 43.5688 23.0343C44.0744 23.6138 44.3368 24.3825 44.356 25.3404C44.3667 26.1553 44.1196 26.9528 43.6498 27.6188C43.1798 28.2887 42.5153 28.8131 41.6562 29.1922C40.7972 29.5712 39.7889 29.7596 38.6312 29.7575C37.5445 29.7744 36.4671 29.5561 35.4728 29.1175Z" fill="#210033"/>
<path d="M59.5379 23.1868H48.1149C48.2053 24.3801 48.6483 25.3401 49.444 26.0668C50.2397 26.7936 51.2165 27.1555 52.3741 27.1527C54.0381 27.1527 55.214 26.4562 55.9016 25.0631H59.2381C58.7991 26.4207 57.94 27.6037 56.7848 28.4412C55.5994 29.3187 54.1292 29.7575 52.3741 29.7575C50.9462 29.7575 49.6662 29.4375 48.5341 28.7975C47.4096 28.1627 46.4879 27.2221 45.876 26.085C45.236 24.918 44.916 23.5669 44.916 22.0316C44.916 20.4963 45.2278 19.1452 45.8515 17.9783C46.4467 16.8411 47.3613 15.9027 48.4829 15.2786C49.6136 14.6457 50.9114 14.3292 52.3763 14.3292C53.7878 14.3292 55.0451 14.6368 56.148 15.2519C57.2365 15.8522 58.1307 16.7511 58.7251 17.8428C59.3395 18.9557 59.647 20.2357 59.6478 21.6828C59.6505 22.1863 59.6138 22.6891 59.5379 23.1868ZM56.4168 20.6908C56.399 19.553 55.9923 18.6396 55.1965 17.9506C54.4008 17.2615 53.4149 16.918 52.2387 16.9202C51.2291 16.8985 50.2492 17.2624 49.4984 17.9378C48.7389 18.6147 48.2867 19.5324 48.1416 20.6908H56.4168Z" fill="#210033"/>
<path d="M71.7374 15.0481C72.6672 15.5352 73.4283 16.2918 73.9209 17.2188C74.4457 18.1781 74.708 19.3354 74.708 20.6908V29.5089H71.6424V21.1527C71.6424 19.8136 71.3079 18.7872 70.6387 18.0732C69.9696 17.3592 69.0561 17.0019 67.8985 17.0012C66.7401 17.0012 65.822 17.3585 65.1443 18.0732C64.4666 18.7879 64.1267 19.8144 64.1246 21.1527V29.5089H61.0312V14.5596H64.1246V16.2663C64.6478 15.6396 65.313 15.1466 66.0649 14.8284C66.8565 14.4839 67.7114 14.3084 68.5747 14.3132C69.6732 14.2953 70.7593 14.5477 71.7374 15.0481Z" fill="#210033"/>
<path d="M76.8615 17.9783C77.446 16.859 78.3298 15.9239 79.4144 15.2772C80.499 14.6305 81.7418 14.2975 83.0044 14.3154C84.0022 14.3208 84.9873 14.539 85.894 14.9554C86.8434 15.382 87.5986 15.947 88.1596 16.6503V9.43216H91.2818V29.509H88.1618V27.2562C87.6155 28.0143 86.8938 28.6288 86.0583 29.0471C85.1602 29.5207 84.134 29.7575 82.9799 29.7575C81.721 29.7694 80.4843 29.4259 79.4119 28.7666C78.3247 28.0949 77.4425 27.1379 76.8615 25.9996C76.2378 24.8149 75.926 23.472 75.926 21.9708C75.926 20.4697 76.2378 19.1388 76.8615 17.9783ZM87.5282 19.334C87.1398 18.6132 86.5613 18.0126 85.8556 17.5975C85.1807 17.2031 84.4123 16.9968 83.6306 17.0002C82.8347 16.9932 82.052 17.2028 81.3661 17.6066C80.6803 18.0104 80.1172 18.5931 79.7372 19.2924C79.3106 20.0434 79.0972 20.9344 79.0972 21.9655C79.0972 22.9966 79.3106 23.9008 79.7372 24.678C80.1229 25.4144 80.7052 26.0296 81.4194 26.4551C82.0878 26.8545 82.8519 27.0653 83.6306 27.0652C84.4122 27.0689 85.1805 26.863 85.8556 26.469C86.5624 26.0503 87.1397 25.4446 87.5239 24.7186C87.9506 23.9506 88.1639 23.051 88.1639 22.0199C88.1639 20.9888 87.9506 20.0935 87.5239 19.334H87.5282Z" fill="#210033"/>
<path d="M95.8473 29.1175C94.9736 28.7377 94.2122 28.1397 93.6361 27.3809C93.1018 26.6716 92.7987 25.8151 92.7678 24.9276H95.9678C96.0219 25.5612 96.3248 26.0903 96.8766 26.5148C97.4284 26.9393 98.1204 27.1527 98.9524 27.1548C99.8206 27.1548 100.496 26.9873 100.979 26.6524C101.462 26.3175 101.702 25.888 101.698 25.3639C101.698 24.8042 101.431 24.3882 100.898 24.1159C100.365 23.8435 99.5191 23.5452 98.3614 23.2209C97.431 22.977 96.5159 22.6778 95.6212 22.3249C94.9135 22.0342 94.2855 21.5785 93.7897 20.9959C93.2741 20.3985 93.0164 19.6117 93.0164 18.6353C93.0126 17.851 93.2596 17.0859 93.7214 16.4519C94.1922 15.792 94.8677 15.2718 95.7481 14.8913C96.6284 14.5109 97.6368 14.321 98.7732 14.3217C100.473 14.3217 101.844 14.7513 102.884 15.6103C103.924 16.4693 104.481 17.6405 104.552 19.1239H101.459C101.443 18.815 101.362 18.513 101.222 18.2374C101.082 17.9617 100.885 17.7186 100.645 17.5239C100.157 17.1271 99.4967 16.9283 98.6654 16.9276C97.8505 16.9276 97.2265 17.0812 96.7934 17.3884C96.5901 17.52 96.4236 17.7011 96.3096 17.9148C96.1955 18.1284 96.1378 18.3676 96.1417 18.6097C96.1384 18.7983 96.1754 18.9854 96.2503 19.1585C96.3251 19.3317 96.4361 19.4868 96.5758 19.6135C96.8819 19.8959 97.2418 20.1135 97.634 20.2535C98.05 20.4071 98.6651 20.6012 99.4793 20.8359C100.388 21.0676 101.279 21.3623 102.146 21.718C102.839 22.0146 103.456 22.4647 103.95 23.0343C104.457 23.6138 104.719 24.3825 104.737 25.3404C104.748 26.1552 104.501 26.9525 104.032 27.6188C103.56 28.2887 102.895 28.8131 102.037 29.1922C101.179 29.5712 100.168 29.7596 99.0046 29.7575C97.9184 29.7742 96.8413 29.5558 95.8473 29.1175Z" fill="#210033"/>
<path d="M109.869 17.0823V25.3575C109.869 25.9186 110 26.321 110.262 26.565C110.525 26.8089 110.972 26.9308 111.605 26.9308H113.504V29.509H111.058C109.665 29.509 108.598 29.1833 107.858 28.5319C107.118 27.8805 106.748 26.8224 106.749 25.3575V17.0823H104.985V14.5596H106.749V10.8423H109.869V14.5596H113.504V17.0823H109.869Z" fill="#210033"/>
<path d="M114.196 17.9783C114.778 16.8625 115.658 15.9296 116.738 15.2831C117.817 14.6366 119.055 14.3016 120.313 14.3153C121.489 14.3153 122.515 14.5461 123.393 15.0076C124.211 15.4208 124.929 16.0089 125.495 16.7303V14.5596H128.615V29.5089H125.495V27.2839C124.924 28.0271 124.192 28.6301 123.352 29.0471C122.448 29.5178 121.417 29.7532 120.259 29.7532C119.013 29.7639 117.79 29.4202 116.733 28.7623C115.651 28.0875 114.775 27.1309 114.196 25.9953C113.571 24.8106 113.259 23.4677 113.26 21.9665C113.26 20.4654 113.572 19.136 114.196 17.9783ZM124.857 19.334C124.471 18.6135 123.894 18.0129 123.189 17.5975C122.515 17.2028 121.747 16.9965 120.965 17.0001C120.169 16.9933 119.386 17.203 118.7 17.6068C118.014 18.0105 117.451 18.5932 117.071 19.2924C116.644 20.0433 116.431 20.9344 116.431 21.9655C116.431 22.9966 116.644 23.9008 117.071 24.678C117.456 25.4144 118.039 26.0295 118.753 26.4551C119.422 26.8546 120.186 27.0654 120.965 27.0652C121.746 27.0693 122.515 26.8633 123.189 26.4689C123.896 26.0506 124.474 25.4448 124.857 24.7185C125.284 23.9505 125.497 23.051 125.497 22.0199C125.497 20.9888 125.284 20.0935 124.857 19.334Z" fill="#210033"/>
<path d="M130.988 17.9644C131.576 16.8355 132.476 15.8986 133.579 15.2647C134.682 14.6318 135.948 14.3153 137.378 14.3153C139.187 14.3153 140.684 14.7448 141.868 15.6039C143.053 16.4629 143.854 17.6885 144.27 19.2807H140.932C140.692 18.5791 140.236 17.9713 139.63 17.5441C139.034 17.1281 138.283 16.9201 137.378 16.9201C136.112 16.9201 135.104 17.3678 134.353 18.2631C133.602 19.1584 133.227 20.411 133.227 22.0209C133.227 23.6309 133.602 24.8878 134.353 25.7916C135.103 26.6954 136.111 27.1477 137.378 27.1484C139.168 27.1484 140.353 26.3616 140.932 24.7879H144.27C143.836 26.3068 143.022 27.5157 141.827 28.4145C140.632 29.3134 139.149 29.761 137.378 29.7575C135.949 29.7575 134.683 29.4375 133.579 28.7975C132.477 28.1566 131.578 27.216 130.988 26.0849C130.365 24.918 130.053 23.5669 130.053 22.0316C130.053 20.4963 130.365 19.1406 130.988 17.9644Z" fill="#210033"/>
<path d="M151.485 22.0476L158.375 29.5143H154.197L148.662 23.0834V29.5143H145.569V9.43216H148.662V21.0983L154.088 14.5596H158.375L151.485 22.0476Z" fill="#210033"/>
<path d="M21.4206 11.9143H13.9326V16.8124H21.4206V11.9143Z" fill="#7300AD"/>
<path d="M15.6489 27.2561H8.16089V32.1543H15.6489V27.2561Z" fill="#7300AD"/>
<path d="M21.2147 19.5847H8.44454C7.71387 19.5847 7.05787 19.0513 6.99067 18.326C6.97297 18.1335 6.99572 17.9395 7.05743 17.7563C7.11915 17.5731 7.21848 17.4049 7.34906 17.2623C7.47963 17.1198 7.63856 17.0062 7.81564 16.9287C7.99272 16.8512 8.18405 16.8116 8.37734 16.8124H11.1795C11.1795 16.8124 11.1859 16.8124 11.1891 16.8124V11.9175C11.1859 11.9165 11.1826 11.9165 11.1795 11.9175H8.53414C5.1208 11.9175 2.2088 14.5628 2.0872 17.9708C2.05729 18.8147 2.19753 19.6561 2.49957 20.4447C2.80162 21.2333 3.25929 21.9531 3.84532 22.5611C4.43135 23.1691 5.13376 23.653 5.91072 23.9839C6.68767 24.3147 7.52326 24.4859 8.36774 24.4871H21.1379C21.8685 24.4871 22.5245 25.0204 22.5917 25.7457C22.6094 25.9377 22.5868 26.1312 22.5255 26.3139C22.4641 26.4967 22.3654 26.6646 22.2355 26.807C22.1056 26.9494 21.9475 27.0632 21.7712 27.1411C21.5948 27.219 21.4042 27.2593 21.2115 27.2593H18.4115C18.4087 27.2583 18.4057 27.2583 18.4029 27.2593V32.1511C18.4057 32.1521 18.4087 32.1521 18.4115 32.1511H21.0483C24.4616 32.1511 27.3725 29.5047 27.4952 26.0967C27.5245 25.2531 27.3839 24.4122 27.0816 23.6241C26.7792 22.836 26.3215 22.1167 25.7355 21.5092C25.1495 20.9016 24.4473 20.4181 23.6707 20.0875C22.894 19.7569 22.0588 19.5859 21.2147 19.5847Z" fill="#A313E0"/>
</svg>
